<svg width="2563" height="420" viewBox="0 0 2563 420" xmlns="http://www.w3.org/2000/svg" preserveAspectRatio="xMinYMid meet"><path d="M2456 140v200h45.621v-100.07c0-25.107 19.153-52.777 60.88-60.93v-42c-28.654 1.58-53.25 20.46-63.346 35.202h-.411l-3.234-32.202h-39.51zm-176.717-3.87c19.821-1.641 41.319-2.13 62.082-2.13 48.909 0 78.09 18.906 78.09 72.336v133.664h-41.021l-2.037-20.007h-.534c-14.066 15.156-34.498 24.007-60.665 24.007-34.658 0-62.198-22.447-62.198-66.93 0-41.371 34.497-79.892 120.834-61.569v-12.042c0-23.838-13.975-30.498-41.512-30.498-16.903 0-31.237 1.145-53.039 3.01v-39.841zm94.551 111.018c-36.579-9.305-73.158 2.127-73.158 30.401 0 18.754 12.446 29.773 31.003 28.948 14.625-.65 30.725-7.14 42.155-17.262v-42.087zm-248.887 20.687c5.793-3.711 12.414-7.835 18.621-12.784l50.069 84.948h51.31l-67.448-114.227c24.828-24.33 45.103-52.784 62.069-85.773h-48.414c-16.966 30.103-40.966 58.144-66.207 79.588l-.001-159.588-45.62 5.289v274.711h45.62l.001-72.165zm-255.756-27.22v-.82c0-61.509 29.934-105.795 91.853-105.795 57.408 0 84.062 33.215 84.062 102.925 0 7.381-.519 17.569-1.314 25.075h-126.745c3.275 28.171 19.694 45 53.394 45 21.323 0 41.358-1.995 59.928-4.426v38.204c-20.866 3.274-38.571 5.222-61.124 5.222-65.609 0-100.054-32.805-100.054-105.385zm47.157-12.615h82.422c0-31.294-8.201-56-38.956-56-31.985 0-42.646 26.353-43.466 56zm-206.318-168v280h147.941v-45.282h-98.089v-234.718h-49.852zm-203.03 80c14.433 56.907 48.247 164.202 65.915 206-11.418 25.837-29.893 38.893-64.667 36.944v35.878c75.094 10.073 95.511-45.822 109.68-78.822 14.169-33 50.309-143.093 65.155-200h-47.835c-8.247 37.526-28.866 111.34-39.588 148.866h-.825c-11.134-37.113-31.753-110.928-39.588-148.866h-48.247zm-151.478 26.538c-9.244-21.544-27.676-32.538-57.324-32.538-28.608 0-48.02 15.76-59.018 33h-.537c-.813-7.146-2.653-27-2.653-27h-39.707v200h45.621v-105.185c0-31.843 19.132-57.145 42.142-58.875 23.762-1.787 33.113 11.008 33.113 43.529v120.531h45.621v-104.69l.001-.495c0-34.221 19.118-57.444 42.142-58.875 23.669-1.471 33.113 11.008 33.113 43.529v120.531h45.621v-129.932c0-50.176-19.084-76.068-64.582-76.068-27.55 0-50.273 14.697-63.553 32.538zm-337.239-30.409c19.821-1.641 41.319-2.13 62.082-2.13 48.909 0 78.09 18.906 78.09 72.336v133.664h-41.021l-2.037-20.007h-.534c-14.066 15.156-34.498 24.007-60.665 24.007-34.658 0-62.198-22.447-62.198-66.93 0-41.371 34.497-79.892 120.834-61.569v-12.042c0-23.838-13.975-30.498-41.512-30.498-16.903 0-31.237 1.145-53.039 3.01v-39.841zm94.551 111.018c-36.579-9.305-73.158 2.127-73.158 30.401 0 18.754 12.446 29.773 31.003 28.948 14.625-.65 30.725-7.14 42.155-17.262v-42.087zm-325.834-107.148v200h45.621v-105.185c0-31.843 24.854-57.305 47.142-58.875 24.594-1.732 37.113 11.008 37.113 43.529v120.531h45.621v-129.932c0-50.948-23.41-76.068-70.582-76.068-27.929 0-51.02 15.76-62.018 33h-.537c-.813-7.146-2.653-27-2.653-27h-39.707zm-219.632-80v45.282h117.151l-124.52 196.04v38.678h189.327v-45.282h-126.291l124.214-196.914v-37.804h-179.881zm-334.437 263.285l66.006 76.715 65.796-47.805-64.236-106.279c-29.012 17.895-57.456 52.582-67.566 77.369zm-94.887 76.6c54.237-110.615 157.826-192.551 281.955-217.001l-25.225-77.703c-150.598 17.006-278.728 108.28-347.298 236.453l90.568 58.252zm19.765-263.806l-132.695-31.245-25.114 77.481 92.133 38.894c18.894-19.109 40.011-35.773 63.231-50.012 31.453-19.336 58.905-32.125 105.585-48.135l-10.336-123.062h-81.356l-11.448 136.078z" fill="#00C3A5"/></svg>