<svg xmlns="http://www.w3.org/2000/svg" width="339" height="271" viewBox="0 0 339 271">
  <g fill="none" fill-rule="evenodd">
    <path fill="#4EC2F1" fill-rule="nonzero" d="M97.9,226.6 C97.9,233.2 97,239.2 95.3,244.5 C93.6,249.9 90.8,254.5 87.1,258.3 C83.4,262.1 78.6,265.1 72.8,267.2 C67,269.3 60,270.3 51.9,270.3 C46.4,270.3 41.1,269.7 36.1,268.6 C31.1,267.5 26.6,265.6 22.6,263 C18.6,260.4 15.4,257 12.9,252.7 C10.4,248.5 9,243.3 8.6,237.1 L21.5,237.1 C21.8,241.3 22.8,244.9 24.5,248 C26.2,251.1 28.5,253.6 31.1,255.7 C33.8,257.7 36.9,259.2 40.4,260.1 C43.9,261 47.6,261.5 51.5,261.5 C62.5,261.5 70.8,258.5 76.5,252.5 C82.1,246.5 85,238.2 85,227.4 L85,209.3 C81.4,215.2 76.5,219.8 70.3,223 C64.1,226.2 57,227.8 48.9,227.8 C41.4,227.8 34.6,226.5 28.7,223.8 C22.7,221.1 17.6,217.4 13.5,212.6 C9.3,207.8 6.1,202.3 3.8,195.9 C1.5,189.5 0.4,182.6 0.4,175.2 C0.4,167.5 1.5,160.3 3.6,153.4 C5.7,146.5 8.9,140.6 13.2,135.5 C17.4,130.4 22.7,126.4 29,123.4 C35.3,120.5 42.6,119 50.8,119 C57.8,119 64.3,120.4 70.5,123.2 C76.6,126 81.4,130.3 84.9,135.9 L84.9,121.6 L98,121.6 L98,226.8 L98,226.6 L97.9,226.6 Z M85,155.1 C85,151.5 84,148.1 82.1,144.9 C80.2,141.7 77.6,139 74.4,136.7 C71.2,134.4 67.8,132.6 63.9,131.3 C60.1,130 56.3,129.3 52.7,129.3 C45.4,129.3 39.3,130.6 34.3,133.3 C29.3,136 25.2,139.5 22.1,143.8 C19,148.1 16.8,153 15.5,158.5 C14.2,164 13.5,169.6 13.5,175.2 C13.5,181 14.3,186.4 15.8,191.6 C17.3,196.8 19.7,201.3 22.9,205.1 C26.1,208.9 30,212 34.6,214.2 C39.2,216.4 44.7,217.5 51,217.5 C55.3,217.5 59.5,216.8 63.6,215.5 C67.7,214.2 71.3,212.2 74.4,209.8 C77.5,207.3 80,204.3 82,200.7 C83.9,197.1 84.9,193.1 84.9,188.5 L85,155.1 Z"/>
    <polygon fill="#4EC2F1" points="110 225.4 110 121.6 123.1 121.6 123.1 225.4 110 225.4"/>
    <path fill="#4EC2F1" fill-rule="nonzero" d="M233.9 175.2C233.9 182.6 232.8 189.5 230.5 195.9 228.2 202.3 225 207.9 220.8 212.6 216.6 217.4 211.5 221.1 205.5 223.8 199.5 226.5 192.7 227.8 185.4 227.8 177.3 227.8 170.2 226.2 164 223 157.8 219.8 153 215.2 149.5 209.3L149.5 266.9 136.4 266.9 136.4 121.6 149.3 121.6 149.3 135.9C152.9 130.3 157.8 126 163.9 123.2 170 120.4 176.6 119 183.5 119 191.7 119 198.9 120.5 205.3 123.4 211.6 126.4 216.9 130.4 221.1 135.5 225.3 140.6 228.5 146.6 230.7 153.4 232.8 160.3 233.9 167.6 233.9 175.2zM220.8 175.2C220.8 169.6 220.1 164 218.8 158.5 217.5 153 215.2 148.1 212.2 143.8 209.1 139.5 205 136 200 133.3 195 130.6 188.8 129.3 181.6 129.3 178 129.3 174.2 130 170.4 131.3 166.6 132.6 163.1 134.5 159.9 136.7 156.7 139 154.2 141.7 152.2 144.9 150.3 148.1 149.3 151.4 149.3 155.1L149.3 188.5C149.3 193.1 150.3 197.1 152.2 200.7 154.2 204.3 156.7 207.3 159.9 209.8 163.1 212.3 166.7 214.2 170.8 215.5 174.9 216.8 179.1 217.5 183.4 217.5 189.6 217.5 195 216.4 199.7 214.2 204.4 212 208.3 209 211.5 205.1 214.7 201.3 217 196.8 218.6 191.6 220 186.5 220.8 181 220.8 175.2zM338.9 173.4C338.9 180.5 337.9 187.4 335.8 194 333.7 200.6 330.6 206.4 326.4 211.4 322.2 216.4 317.1 220.4 311 223.4 304.9 226.3 297.7 227.8 289.5 227.8 281.4 227.8 274.3 226.3 268.1 223.4 261.9 220.4 256.8 216.5 252.7 211.4 248.6 206.4 245.5 200.6 243.4 194 241.3 187.4 240.3 180.6 240.3 173.4 240.3 166.3 241.3 159.5 243.4 153 245.5 146.5 248.6 140.7 252.7 135.7 256.8 130.7 261.9 126.6 268.1 123.6 274.3 120.6 281.5 119.1 289.7 119.1 297.8 119.1 304.9 120.6 311 123.6 317.2 126.6 322.3 130.7 326.4 135.7 330.5 140.7 333.6 146.5 335.7 153 337.8 159.5 338.9 166.3 338.9 173.4zM325.8 173.4C325.8 167.9 325.1 162.5 323.6 157.2 322.1 151.9 319.9 147.2 317 143.1 314.1 139 310.3 135.7 305.7 133.1 301.1 130.5 295.9 129.3 289.8 129.3 283.6 129.3 278.3 130.6 273.7 133.1 269.1 135.7 265.4 139 262.3 143.1 259.3 147.2 257 151.9 255.6 157.2 254.1 162.5 253.4 167.9 253.4 173.4 253.4 179 254.1 184.5 255.6 189.7 257.1 194.9 259.3 199.6 262.3 203.8 265.3 208 269.1 211.3 273.7 213.8 278.2 216.3 283.6 217.5 289.8 217.5 295.8 217.5 301.1 216.3 305.7 213.8 310.3 211.3 314 208 317 203.9 320 199.8 322.2 195.1 323.6 189.8 325.1 184.5 325.8 179 325.8 173.4z"/>
    <path fill="#41C0F0" d="M125.2,93.9 C125.2,98.7 121.3,102.7 116.4,102.7 C111.6,102.7 107.6,98.8 107.6,93.9 C107.6,89.1 111.5,85.1 116.4,85.1 C121.3,85.1 125.2,89 125.2,93.9 Z"/>
    <path fill="#41C0F0" d="M124.8,9.1 C124.8,13.9 120.9,17.9 116,17.9 C111.2,17.9 107.2,14 107.2,9.1 C107.2,4.3 111.1,0.3 116,0.3 C120.9,0.3 124.8,4.2 124.8,9.1 Z" opacity=".4"/>
    <path fill="#41C0F0" d="M167.9,51.4 C167.9,56.2 164,60.2 159.1,60.2 C154.3,60.2 150.3,56.3 150.3,51.4 C150.3,46.5 154.2,42.6 159.1,42.6 C164,42.6 167.9,46.5 167.9,51.4 Z" opacity=".7"/>
    <path fill="#41C0F0" d="M82.8,51.3 C82.8,56.1 78.9,60.1 74,60.1 C69.2,60.1 65.2,56.2 65.2,51.3 C65.2,46.5 69.1,42.5 74,42.5 C78.8,42.6 82.8,46.5 82.8,51.3 Z" opacity=".15"/>
    <path fill="#41C0F0" d="M88.5,72.7 C88.5,77.5 84.6,81.5 79.7,81.5 C74.9,81.5 70.9,77.6 70.9,72.7 C70.9,67.8 74.8,63.9 79.7,63.9 C84.6,64 88.5,67.9 88.5,72.7 Z" opacity=".1"/>
    <path fill="#41C0F0" d="M88.5,30.3 C88.5,35.1 84.6,39.1 79.7,39.1 C74.9,39.1 70.9,35.2 70.9,30.3 C70.9,25.5 74.8,21.5 79.7,21.5 C84.6,21.5 88.5,25.4 88.5,30.3 Z" opacity=".2"/>
    <path fill="#41C0F0" d="M161.9,72.6 C161.9,77.4 158,81.4 153.1,81.4 C148.3,81.4 144.3,77.5 144.3,72.6 C144.3,67.8 148.2,63.8 153.1,63.8 C157.9,63.8 161.9,67.7 161.9,72.6 Z" opacity=".8"/>
    <path fill="#41C0F0" d="M161.9,30.1 C161.9,34.9 158,38.9 153.1,38.9 C148.3,38.9 144.3,35 144.3,30.1 C144.3,25.3 148.2,21.3 153.1,21.3 C158,21.4 161.9,25.3 161.9,30.1 Z" opacity=".6"/>
    <path fill="#41C0F0" d="M103.9,88.1 C103.9,92.9 100,96.9 95.1,96.9 C90.3,96.9 86.3,93 86.3,88.1 C86.3,83.3 90.2,79.3 95.1,79.3 C100,79.3 103.9,83.3 103.9,88.1 Z" opacity=".05"/>
    <path fill="#41C0F0" d="M104,14.8 C104,19.6 100.1,23.6 95.2,23.6 C90.4,23.6 86.4,19.7 86.4,14.8 C86.4,10 90.3,6 95.2,6 C100.1,6 104,9.9 104,14.8 Z" opacity=".3"/>
    <path fill="#41C0F0" d="M146.4,88.1 C146.4,92.9 142.5,96.9 137.6,96.9 C132.8,96.9 128.8,93 128.8,88.1 C128.8,83.3 132.7,79.3 137.6,79.3 C142.5,79.3 146.4,83.3 146.4,88.1 Z" opacity=".9"/>
    <path fill="#41C0F0" d="M146.4,14.7 C146.4,19.5 142.5,23.5 137.6,23.5 C132.7,23.5 128.8,19.6 128.8,14.7 C128.8,9.9 132.7,5.9 137.6,5.9 C142.5,5.9 146.4,9.9 146.4,14.7 Z" opacity=".5"/>
  </g>
</svg>
