<svg width="2392" height="400" viewBox="0 0 2392 400" xmlns="http://www.w3.org/2000/svg" preserveAspectRatio="xMinYMid meet"><path d="M2215.191 240.615v-.82c0-61.509 29.934-105.795 91.853-105.795 57.408 0 84.062 33.215 84.062 102.925 0 7.381-.519 17.569-1.314 25.075h-126.745c3.275 28.171 19.694 45 53.394 45 21.323 0 41.358-1.995 59.928-4.426v38.204c-20.866 3.274-38.571 5.222-61.124 5.222-65.609 0-100.054-32.805-100.054-105.385zm47.157-12.615h82.422c0-31.294-8.201-56-38.956-56-31.985 0-42.646 26.353-43.466 56zm-167.131-88v200h45.621v-100.07c0-25.107 19.153-52.777 60.88-60.93v-42c-28.654 1.58-53.25 20.46-63.346 35.202h-.411l-3.234-32.202h-39.51zm-219.217 101.025v-2.05c0-66.839 30.754-104.975 94.313-104.975 63.149 0 93.903 38.135 93.903 104.975v2.05c0 66.839-30.754 104.975-93.903 104.975-63.559 0-94.313-38.135-94.313-104.975zm94.207-69.025c-32.3 0-47.207 21.916-47.207 67.704s14.907 67.296 47.207 67.296 46.793-21.442 46.793-67.296c0-45.854-14.493-67.704-46.793-67.704zm-209.207-86.712v189.198c0 46.032 13.974 71.514 66.171 71.514 7.146 0 18.076-1.037 26.179-2.786v-37.636c-4.488 1.045-10.628 2.432-17.959 2.432-18.041 0-28.77-4.136-28.77-39.045v-91.965h46.729v-37h-46.729v-60l-45.621 5.288zm-125 0v189.198c0 46.032 13.974 71.514 66.171 71.514 7.146 0 18.076-1.037 26.179-2.786v-37.636c-4.488 1.045-10.628 2.432-17.959 2.432-18.041 0-28.77-4.136-28.77-39.045v-91.965h46.729v-37h-46.729v-60l-45.621 5.288zm-220 155.738v-2.05c0-66.839 30.754-104.975 94.313-104.975 63.149 0 93.903 38.135 93.903 104.975v2.05c0 66.839-30.754 104.975-93.903 104.975-63.559 0-94.313-38.135-94.313-104.975zm94.207-69.025c-32.3 0-47.207 21.916-47.207 67.704s14.907 67.296 47.207 67.296 46.793-21.442 46.793-67.296c0-45.854-14.493-67.704-46.793-67.704zm-336.207 168v-280h70.326c97.996 0 143.601 29.43 143.601 140s-45.604 140-143.601 140h-70.326zm161.547-140c0-62.949-12.777-94.718-80.31-94.718h-31.302v189.436h31.302c67.533 0 80.31-31.769 80.31-94.718zm-384.547 41.025v-2.05c0-66.839 30.754-104.975 94.313-104.975 63.149 0 93.903 38.135 93.903 104.975v2.05c0 66.839-30.754 104.975-93.903 104.975-63.559 0-94.313-38.135-94.313-104.975zm94.207-69.025c-32.3 0-47.207 21.916-47.207 67.704s14.907 67.296 47.207 67.296 46.793-21.442 46.793-67.296c0-45.854-14.493-67.704-46.793-67.704zm-125.707-32l-45.62.289v199.711h45.62v-200zm-22.605-28.21c14.301 0 25.895-11.594 25.895-25.895s-11.594-25.895-25.895-25.895-25.895 11.594-25.895 25.895 11.594 25.895 25.895 25.895zm-116.831-51.435l-.064-.356h-6.329l-78.671 194.641-78.671-194.641h-6.329l-.064.356v-.356h-49.936v280h49.936v-183.55l.064.266 74 183.285h22l74-183.285.064-.266v183.55h49.936v-280h-49.936v.356zm-547.133 262.929l66.006 76.715 65.796-47.805-64.236-106.279c-29.012 17.895-57.456 52.582-67.566 77.369zm-94.887 76.6c54.237-110.615 157.826-192.551 281.955-217.001l-25.225-77.703c-150.598 17.006-278.728 108.28-347.298 236.453l90.568 58.252zm19.765-263.806l-132.695-31.245-25.114 77.481 92.133 38.894c18.894-19.109 40.011-35.773 63.231-50.012 31.453-19.336 58.905-32.125 105.585-48.135l-10.336-123.062h-81.356l-11.448 136.078z" fill="#00C3A5"/></svg>